<mxfile host="65bd71144e">
    <diagram id="nPJZ4RdiA9PnXjcXY77A" name="第 1 页">
        <mxGraphModel dx="1852" dy="655" grid="1" gridSize="10" guides="1" tooltips="1" connect="1" arrows="1" fold="1" page="1" pageScale="1" pageWidth="827" pageHeight="1169" background="none" math="0" shadow="0">
            <root>
                <mxCell id="0"/>
                <mxCell id="1" style="" parent="0"/>
                <mxCell id="2" value="&lt;blockquote style=&quot;margin: 0 0 0 40px ; border: none ; padding: 0px&quot;&gt;&lt;pre style=&quot;font-size: 13px&quot;&gt;&lt;font style=&quot;font-size: 15px&quot; face=&quot;Verdana&quot;&gt;&lt;b&gt;&lt;font style=&quot;font-size: 15px&quot;&gt;JVM内存&lt;br&gt;&lt;/font&gt;this关键字&lt;/b&gt;&lt;/font&gt;&lt;/pre&gt;&lt;/blockquote&gt;" style="rounded=0;whiteSpace=wrap;html=1;fillColor=#6d8764;strokeColor=#3A5431;fontColor=#ffffff;align=center;verticalAlign=top;labelPosition=center;verticalLabelPosition=middle;horizontal=1;" parent="1" vertex="1">
                    <mxGeometry x="320.42" y="120" width="759.58" height="520" as="geometry"/>
                </mxCell>
                <mxCell id="6" value="&lt;h2&gt;栈&lt;/h2&gt;" style="rounded=0;whiteSpace=wrap;html=1;fillColor=#647687;strokeColor=#0F0F0F;fontColor=#ffffff;align=center;labelPosition=center;verticalLabelPosition=middle;verticalAlign=top;" parent="1" vertex="1">
                    <mxGeometry x="350" y="190" width="270" height="420" as="geometry"/>
                </mxCell>
                <mxCell id="10" value="main栈" style="rounded=0;whiteSpace=wrap;html=1;fontFamily=Verdana;fontSize=15;strokeColor=#543B27;fillColor=#B266FF;verticalAlign=top;align=left;fontColor=#ffffff;" parent="1" vertex="1">
                    <mxGeometry x="365" y="470" width="240" height="130" as="geometry"/>
                </mxCell>
                <mxCell id="61" style="edgeStyle=orthogonalEdgeStyle;curved=1;html=1;entryX=-0.002;entryY=0.113;entryDx=0;entryDy=0;entryPerimeter=0;strokeWidth=3;" edge="1" parent="1" source="12" target="15">
                    <mxGeometry relative="1" as="geometry">
                        <Array as="points">
                            <mxPoint x="610" y="513"/>
                            <mxPoint x="610" y="258"/>
                        </Array>
                    </mxGeometry>
                </mxCell>
                <mxCell id="12" value="dog1 -&amp;gt; [0x1122]" style="rounded=0;whiteSpace=wrap;html=1;fontFamily=Verdana;fontSize=15;strokeColor=#543B27;fillColor=#B266FF;align=left;" parent="1" vertex="1">
                    <mxGeometry x="370" y="500" width="230" height="27" as="geometry"/>
                </mxCell>
                <mxCell id="14" value="&lt;h2&gt;堆&lt;/h2&gt;" style="rounded=0;whiteSpace=wrap;html=1;fillColor=#647687;strokeColor=#0F0F0F;fontColor=#ffffff;align=center;labelPosition=center;verticalLabelPosition=middle;verticalAlign=top;" parent="1" vertex="1">
                    <mxGeometry x="650" y="190" width="400" height="230" as="geometry"/>
                </mxCell>
                <mxCell id="15" value="对象 &lt;font color=&quot;#000000&quot;&gt;(0x1122)&lt;/font&gt;" style="rounded=0;whiteSpace=wrap;html=1;fontFamily=Verdana;fontSize=15;strokeColor=#006EAF;fillColor=#1ba1e2;verticalAlign=top;align=left;fontColor=#ffffff;" parent="1" vertex="1">
                    <mxGeometry x="650" y="240" width="190" height="160" as="geometry"/>
                </mxCell>
                <mxCell id="31" value="&lt;h2&gt;方法区&lt;/h2&gt;" style="rounded=0;whiteSpace=wrap;html=1;fillColor=#647687;strokeColor=#0F0F0F;fontColor=#ffffff;align=center;labelPosition=center;verticalLabelPosition=middle;verticalAlign=top;" parent="1" vertex="1">
                    <mxGeometry x="650" y="440" width="400" height="170" as="geometry"/>
                </mxCell>
                <mxCell id="55" value="&lt;div style=&quot;color: rgb(212 , 212 , 212) ; background-color: rgb(30 , 30 , 30) ; font-family: &amp;#34;cn regular&amp;#34; , &amp;#34;consolas&amp;#34; , &amp;#34;courier new&amp;#34; , monospace , &amp;#34;consolas&amp;#34; , &amp;#34;courier new&amp;#34; , monospace ; font-weight: normal ; font-size: 18px ; line-height: 24px&quot;&gt;&lt;div style=&quot;font-family: &amp;#34;cn regular&amp;#34; , &amp;#34;consolas&amp;#34; , &amp;#34;courier new&amp;#34; , monospace , &amp;#34;consolas&amp;#34; , &amp;#34;courier new&amp;#34; , monospace ; line-height: 24px&quot;&gt;&lt;div style=&quot;font-family: &amp;#34;cn regular&amp;#34; , &amp;#34;consolas&amp;#34; , &amp;#34;courier new&amp;#34; , monospace , &amp;#34;consolas&amp;#34; , &amp;#34;courier new&amp;#34; , monospace ; line-height: 24px&quot;&gt;&lt;div&gt;&lt;span style=&quot;color: #569cd6&quot;&gt;public&lt;/span&gt; &lt;span style=&quot;color: #569cd6&quot;&gt;class&lt;/span&gt; Hello {&lt;/div&gt;&lt;div&gt;&amp;nbsp; &amp;nbsp; &lt;span style=&quot;color: #569cd6&quot;&gt;public&lt;/span&gt; &lt;span style=&quot;color: #569cd6&quot;&gt;static&lt;/span&gt; &lt;span style=&quot;color: #569cd6&quot;&gt;void&lt;/span&gt; main(&lt;span style=&quot;color: #569cd6&quot;&gt;String&lt;/span&gt;[] args) {&lt;/div&gt;&lt;div&gt;&amp;nbsp; &amp;nbsp; &amp;nbsp; &amp;nbsp; &lt;span style=&quot;color: #569cd6&quot;&gt;Dog&lt;/span&gt; dog1 = &lt;span style=&quot;color: #569cd6&quot;&gt;new&lt;/span&gt; Dog(&lt;span style=&quot;color: #ce9178&quot;&gt;&quot;大壮&quot;&lt;/span&gt;, &lt;span style=&quot;color: #b5cea8&quot;&gt;3&lt;/span&gt;);&lt;/div&gt;&lt;div&gt;&amp;nbsp; &amp;nbsp; &amp;nbsp; &amp;nbsp; dog1.info();&lt;/div&gt;&lt;br&gt;&lt;div&gt;&amp;nbsp; &amp;nbsp; &amp;nbsp; &amp;nbsp; &lt;span style=&quot;color: #569cd6&quot;&gt;Dog&lt;/span&gt; dog2 = &lt;span style=&quot;color: #569cd6&quot;&gt;new&lt;/span&gt; Dog(&lt;span style=&quot;color: #ce9178&quot;&gt;&quot;大黄&quot;&lt;/span&gt;, &lt;span style=&quot;color: #b5cea8&quot;&gt;2&lt;/span&gt;);&lt;/div&gt;&lt;div&gt;&amp;nbsp; &amp;nbsp; &amp;nbsp; &amp;nbsp; dog2.info();&lt;/div&gt;&lt;div&gt;&amp;nbsp; &amp;nbsp; }&lt;/div&gt;&lt;div&gt;}&lt;/div&gt;&lt;/div&gt;&lt;/div&gt;&lt;/div&gt;" style="text;whiteSpace=wrap;html=1;" vertex="1" parent="1">
                    <mxGeometry x="-130" y="289.25" width="439.58" height="221.5" as="geometry"/>
                </mxCell>
                <mxCell id="56" value="age : 3" style="rounded=0;whiteSpace=wrap;html=1;fontFamily=Verdana;fontSize=15;strokeColor=#543B27;fillColor=#B266FF;align=left;" vertex="1" parent="1">
                    <mxGeometry x="660" y="270" width="155" height="27" as="geometry"/>
                </mxCell>
                <mxCell id="57" value="name: 0x1133" style="rounded=0;whiteSpace=wrap;html=1;fontFamily=Verdana;fontSize=15;strokeColor=#543B27;fillColor=#B266FF;align=left;" vertex="1" parent="1">
                    <mxGeometry x="660" y="303" width="155" height="27" as="geometry"/>
                </mxCell>
                <mxCell id="58" value="常量池" style="rounded=0;whiteSpace=wrap;html=1;fontFamily=Verdana;fontSize=15;strokeColor=#006EAF;fillColor=#1ba1e2;verticalAlign=top;align=left;fontColor=#ffffff;" vertex="1" parent="1">
                    <mxGeometry x="660" y="482.5" width="240" height="117.5" as="geometry"/>
                </mxCell>
                <mxCell id="59" value="大壮 0x1133" style="rounded=0;whiteSpace=wrap;html=1;fontFamily=Verdana;fontSize=15;strokeColor=#543B27;fillColor=#4D9900;align=left;" vertex="1" parent="1">
                    <mxGeometry x="670" y="521.5" width="100" height="27" as="geometry"/>
                </mxCell>
                <mxCell id="60" style="edgeStyle=orthogonalEdgeStyle;html=1;curved=1;strokeWidth=3;" edge="1" parent="1" source="57">
                    <mxGeometry relative="1" as="geometry">
                        <mxPoint x="770" y="547" as="targetPoint"/>
                        <Array as="points">
                            <mxPoint x="830" y="317"/>
                            <mxPoint x="830" y="547"/>
                        </Array>
                    </mxGeometry>
                </mxCell>
                <mxCell id="63" style="edgeStyle=orthogonalEdgeStyle;curved=1;html=1;entryX=0.25;entryY=0;entryDx=0;entryDy=0;strokeWidth=3;" edge="1" parent="1" source="62" target="15">
                    <mxGeometry relative="1" as="geometry">
                        <Array as="points">
                            <mxPoint x="733" y="350"/>
                            <mxPoint x="590" y="350"/>
                            <mxPoint x="590" y="200"/>
                            <mxPoint x="710" y="200"/>
                        </Array>
                    </mxGeometry>
                </mxCell>
                <mxCell id="62" value="this: 0x1122" style="rounded=0;whiteSpace=wrap;html=1;fontFamily=Verdana;fontSize=15;strokeColor=#543B27;fillColor=#B266FF;align=left;" vertex="1" parent="1">
                    <mxGeometry x="660" y="360" width="155" height="27" as="geometry"/>
                </mxCell>
                <mxCell id="64" value="大黄 0x1166" style="rounded=0;whiteSpace=wrap;html=1;fontFamily=Verdana;fontSize=15;strokeColor=#543B27;fillColor=#4D9900;align=left;" vertex="1" parent="1">
                    <mxGeometry x="670" y="560" width="100" height="27" as="geometry"/>
                </mxCell>
                <mxCell id="75" style="edgeStyle=orthogonalEdgeStyle;curved=1;html=1;entryX=0;entryY=0;entryDx=0;entryDy=0;strokeWidth=3;" edge="1" parent="1" source="67" target="68">
                    <mxGeometry relative="1" as="geometry">
                        <Array as="points">
                            <mxPoint x="760" y="547"/>
                            <mxPoint x="760" y="240"/>
                        </Array>
                    </mxGeometry>
                </mxCell>
                <mxCell id="67" value="dog2 -&amp;gt; [0x1155]" style="rounded=0;whiteSpace=wrap;html=1;fontFamily=Verdana;fontSize=15;strokeColor=#543B27;fillColor=#B266FF;align=left;" vertex="1" parent="1">
                    <mxGeometry x="370" y="533" width="230" height="27" as="geometry"/>
                </mxCell>
                <mxCell id="68" value="对象 &lt;font color=&quot;#000000&quot;&gt;(0x1155)&lt;/font&gt;" style="rounded=0;whiteSpace=wrap;html=1;fontFamily=Verdana;fontSize=15;strokeColor=#006EAF;fillColor=#1ba1e2;verticalAlign=top;align=left;fontColor=#ffffff;" vertex="1" parent="1">
                    <mxGeometry x="850" y="240" width="190" height="160" as="geometry"/>
                </mxCell>
                <mxCell id="69" value="age : 2" style="rounded=0;whiteSpace=wrap;html=1;fontFamily=Verdana;fontSize=15;strokeColor=#543B27;fillColor=#B266FF;align=left;" vertex="1" parent="1">
                    <mxGeometry x="860" y="270" width="155" height="27" as="geometry"/>
                </mxCell>
                <mxCell id="73" style="edgeStyle=orthogonalEdgeStyle;curved=1;html=1;strokeWidth=3;entryX=1;entryY=0.5;entryDx=0;entryDy=0;exitX=1;exitY=0.5;exitDx=0;exitDy=0;" edge="1" parent="1" source="70" target="64">
                    <mxGeometry relative="1" as="geometry"/>
                </mxCell>
                <mxCell id="70" value="name: 0x1166" style="rounded=0;whiteSpace=wrap;html=1;fontFamily=Verdana;fontSize=15;strokeColor=#543B27;fillColor=#B266FF;align=left;" vertex="1" parent="1">
                    <mxGeometry x="860" y="303" width="155" height="27" as="geometry"/>
                </mxCell>
                <mxCell id="72" style="edgeStyle=orthogonalEdgeStyle;curved=1;html=1;entryX=0.25;entryY=0;entryDx=0;entryDy=0;strokeWidth=3;" edge="1" parent="1" source="71" target="68">
                    <mxGeometry relative="1" as="geometry">
                        <Array as="points">
                            <mxPoint x="933" y="350"/>
                            <mxPoint x="1060" y="350"/>
                            <mxPoint x="1060" y="200"/>
                            <mxPoint x="897" y="200"/>
                        </Array>
                    </mxGeometry>
                </mxCell>
                <mxCell id="71" value="this: 0x1155" style="rounded=0;whiteSpace=wrap;html=1;fontFamily=Verdana;fontSize=15;strokeColor=#543B27;fillColor=#B266FF;align=left;" vertex="1" parent="1">
                    <mxGeometry x="860" y="360" width="155" height="27" as="geometry"/>
                </mxCell>
            </root>
        </mxGraphModel>
    </diagram>
</mxfile>